<svg width="1180" height="340" viewBox="0 0 1180 340" xmlns="http://www.w3.org/2000/svg" role="img" aria-label="ksTFL monochrome logo">


  <g transform="translate(20,20) scale(0.4)">
    <polygon points="490,70 800,250 800,610 490,790 180,610 180,250"
     fill="#2E86C1" stroke="#2E86C1" stroke-width="14"/>
    <rect x="265" y="220" width="450" height="410" rx="28" fill="#FFFFFF"/>

    <rect x="300" y="255" width="380" height="104" rx="12" fill="#FFFFFF" stroke="#2E86C1" stroke-width="3"/>
    <line x1="300" y1="289" x2="680" y2="289" stroke="#2E86C1" stroke-width="3"/>
    <line x1="300" y1="323" x2="680" y2="323" stroke="#2E86C1" stroke-width="3"/>
    <line x1="427" y1="255" x2="427" y2="359" stroke="#2E86C1" stroke-width="3"/>
    <line x1="553" y1="255" x2="553" y2="359" stroke="#2E86C1" stroke-width="3"/>

    <rect x="308" y="390" width="52" height="144" rx="8" fill="#2E86C1"/>
    <rect x="380" y="362" width="52" height="172" rx="8" fill="#2E86C1"/>
    <rect x="452" y="330" width="52" height="204" rx="8" fill="#2E86C1"/>

    <line x1="532" y1="410" x2="648" y2="410" stroke="#2E86C1" stroke-width="10" stroke-linecap="round"/>
    <line x1="532" y1="442" x2="628" y2="442" stroke="#2E86C1" stroke-width="10" stroke-linecap="round"/>
    <line x1="532" y1="474" x2="608" y2="474" stroke="#2E86C1" stroke-width="10" stroke-linecap="round"/>

    <text x="490" y="710" text-anchor="middle"
      font-family="Space Grotesk, Segoe UI, Arial, sans-serif"
      font-size="108" font-weight="700" fill="#2E86C1">ksTFL</text>
  </g>

  <text x="380" y="188" font-family="Montserrat, Avenir Next, Segoe UI, Arial, sans-serif"
    font-size="128" font-weight="800" fill="#2E86C1">ksTFL</text>
  <text x="382" y="234" font-family="Manrope, Segoe UI, Arial, sans-serif"
    font-size="26" font-weight="400" fill="#2E86C1">Key Statistics</text>
  <text x="382" y="274" font-family="Manrope, Segoe UI, Arial, sans-serif"
    font-size="32" font-weight="800" fill="#2E86C1">Tables, Figures, Listings</text>
</svg>
